<?xml version="1.0" encoding="UTF-8" standalone="no"?>
<svg
   xmlns:dc="http://purl.org/dc/elements/1.1/"
   xmlns:cc="http://creativecommons.org/ns#"
   xmlns:rdf="http://www.w3.org/1999/02/22-rdf-syntax-ns#"
   xmlns:svg="http://www.w3.org/2000/svg"
   xmlns="http://www.w3.org/2000/svg"
   xmlns:sodipodi="http://sodipodi.sourceforge.net/DTD/sodipodi-0.dtd"
   xmlns:inkscape="http://www.inkscape.org/namespaces/inkscape"
   version="1.1"
   x="0px"
   y="0px"
   viewBox="0 0 100 100"
   enable-background="new 0 0 100 100"
   xml:space="preserve"
   id="svg18"
   sodipodi:docname="lernt.svg"
   inkscape:version="0.92.4 (5da689c313, 2019-01-14)"><metadata
     id="metadata24"><rdf:RDF><cc:Work
         rdf:about=""><dc:format>image/svg+xml</dc:format><dc:type
           rdf:resource="http://purl.org/dc/dcmitype/StillImage" /><dc:title></dc:title></cc:Work></rdf:RDF></metadata><defs
     id="defs22" /><sodipodi:namedview
     pagecolor="#ffffff"
     bordercolor="#666666"
     borderopacity="1"
     objecttolerance="10"
     gridtolerance="10"
     guidetolerance="10"
     inkscape:pageopacity="0"
     inkscape:pageshadow="2"
     inkscape:window-width="1834"
     inkscape:window-height="1057"
     id="namedview20"
     showgrid="false"
     inkscape:zoom="13.350176"
     inkscape:cx="78.875381"
     inkscape:cy="46.567016"
     inkscape:window-x="-8"
     inkscape:window-y="-8"
     inkscape:window-maximized="1"
     inkscape:current-layer="svg18" /><path
     d="M49.998,70.385c4.223,0,8.252-0.849,11.925-2.384c-0.38-3.579-1.028-7.477-1.52-8.22c-0.866-0.098-7.854-0.996-9.79-4.503  c-0.699-1.265-0.675-2.691,0.072-4.243c0.149-0.679,0.195-1.725-0.096-2.022c-0.03-0.032-0.123-0.127-0.464-0.052  c-0.054,0.012-0.108,0.016-0.162,0.012c-0.159-0.008-3.852-0.231-5.73-1.127c-0.49-0.088-3.318-0.558-5.384,0.004  c-0.074,0.02-0.153,0.026-0.231,0.018c-0.163-0.02-3.938-0.522-5.141-4.633c-0.691-0.472-3.036-2.137-3.88-3.557  c-0.466-0.578-4.942-6.388-1.295-11.869c-0.458-1.076-1.655-4.519,0.167-7.7c0.076-0.136,0.205-0.235,0.353-0.279  c0.062-0.02,1.721-0.592,2.464-3.763v-1.492c-7.489,5.673-12.337,14.66-12.337,24.76C18.949,56.456,32.878,70.385,49.998,70.385z"
     id="path2" /><path
     d="M70.559,23.717c0.127,0.221,0.572,0.743,1.836,1.956c2.611,2.506,4.378,2.942,5.406,2.864  c0.524-0.04,0.91-0.215,1.165-0.382c-2.444-6.31-6.892-11.626-12.557-15.168v1.683C71.354,21.45,71.233,22.801,70.559,23.717z"
     id="path4" /><path
     d="M38.786,14.748c0.438,0.315,0.689,0.781,0.725,1.345c0.014,0.205-0.076,0.402-0.241,0.524  c-0.225,0.245-0.739,1.542-1.084,2.617c-0.022,0.072-0.058,0.139-0.107,0.197c-0.088,0.108-0.074,0.159-0.064,0.195  c0.094,0.359,0.799,0.835,1.5,1.191c0.223-1.438,0.874-4.221,2.639-5.049c0.97-0.454,2.07-0.257,3.276,0.586  c2.105,1.474,2.988,2.605,2.777,3.561c-0.129,0.582-0.629,0.894-1.02,1.026c-0.267,0.34-0.366,0.639-0.293,0.888  c0.185,0.62,1.344,1.125,1.876,1.271c0.241,0.066,0.416,0.275,0.44,0.524c0.024,0.247-0.107,0.484-0.329,0.597  c-2.703,1.352-2.534,7.097-2.532,7.155c0.01,0.299-0.201,0.56-0.496,0.615c-0.215,0.038-0.351,0.134-0.454,0.321  c-0.524,0.944,0.143,3.452,0.685,4.814c0.102,0.255,0.018,0.548-0.205,0.711c-0.223,0.161-0.528,0.151-0.739-0.026  c-1.731-1.442-3.155-2.058-4.006-1.733c-0.783,0.297-0.962,1.35-0.964,1.36c-0.028,0.195-0.151,0.364-0.325,0.45  c-0.745,0.374-0.992,0.689-0.974,0.861c0.072,0.701,2.484,1.813,4.605,2.372c0.241,0.064,0.416,0.267,0.446,0.514  c0.105,0.918,3.844,2.669,7.276,3.731c1.008,0.231,3.496-1.496,4.948-2.804c0.01-0.01,0.022-0.018,0.032-0.028  c4.011-3.143,9.676-0.185,9.915-0.056c0.068,0.036,0.131,0.086,0.181,0.147c0.589,0.713,0.852,1.39,0.914,1.994  c3.804-2.814,6.872-2.159,7.021-2.125c0.295,0.068,0.494,0.345,0.466,0.647l-0.319,3.207c1.103,4.79-0.962,7.563-1.05,7.68  c-0.006,0.008-0.012,0.016-0.018,0.024c-2.98,3.534-2.305,5.3-2.299,5.316c0.126,0.265,0.04,0.566-0.199,0.737  c-0.747,0.534-2.086,2.721-3.231,4.826c8.143-5.603,13.493-14.985,13.493-25.595c0-3.509-0.586-6.884-1.663-10.031  c-0.369,0.201-0.848,0.377-1.442,0.43c-0.123,0.01-0.247,0.016-0.374,0.016c-1.771,0-3.789-1.076-6.009-3.207  c-2.147-2.06-2.623-2.675-1.982-3.529c0.105-0.139,0.233-0.309-0.1-1.167c-0.514-1.327-1.914-3.557-4.159-6.625  c-0.076-0.102-0.117-0.227-0.117-0.356v-2.595c-4.496-2.536-9.684-3.986-15.204-3.986c-5.641,0-10.937,1.512-15.502,4.153  c-0.139,0.88-0.215,1.711-0.201,2.171C36.481,14.1,37.953,14.146,38.786,14.748z"
     id="path6" /><path
     d="M29.416,20.885c-1.661,3.147,0.094,6.675,0.112,6.711c0.102,0.201,0.082,0.442-0.048,0.625  c-3.651,5.071,1.024,10.666,1.07,10.722c0.026,0.028,0.046,0.058,0.064,0.09c0.665,1.161,2.906,2.792,3.713,3.324  c0.125,0.081,0.215,0.207,0.253,0.349c0.832,3.175,3.521,3.842,4.079,3.948c2.518-0.636,5.744-0.004,5.882,0.024  c0.052,0.01,0.102,0.028,0.151,0.05c1.504,0.753,4.733,1,5.266,1.036c0.767-0.139,1.233,0.141,1.49,0.404  c0.886,0.904,0.484,2.83,0.394,3.207c-0.01,0.044-0.024,0.086-0.044,0.126c-0.602,1.219-0.645,2.263-0.131,3.193  c1.641,2.968,8.206,3.81,8.883,3.89c0.185-0.008,0.372,0.05,0.532,0.171c0.273,0.201,0.84,0.621,1.554,5.358  c0.193,1.275,0.345,2.53,0.442,3.376c0.833-0.39,1.649-0.813,2.442-1.273c0.747-1.478,2.813-5.428,4.231-6.81  c-0.161-0.876-0.09-2.922,2.599-6.119c0.137-0.187,1.801-2.581,0.807-6.762c-0.016-0.064-0.02-0.131-0.014-0.199l0.269-2.717  c-1.107-0.048-3.836,0.197-6.956,3.205c-0.088,0.098-0.179,0.185-0.265,0.255c-0.247,0.207-0.612,0.181-0.829-0.056  c-0.217-0.239-0.209-0.604,0.02-0.833c0.064-0.064,0.131-0.129,0.195-0.193c0.317-0.364,0.821-1.243-0.157-2.5  c-0.751-0.366-5.362-2.446-8.485-0.018c-0.649,0.584-3.581,3.115-5.571,3.117c-0.165,0-0.323-0.018-0.474-0.056  c-0.01-0.002-0.022-0.006-0.032-0.008c-1.723-0.532-7.107-2.336-8.015-4.326c-1.502-0.424-4.995-1.591-5.173-3.324  c-0.074-0.727,0.387-1.376,1.378-1.928c0.149-0.532,0.57-1.583,1.655-1.994c0.986-0.375,2.215-0.102,3.671,0.807  c-0.341-1.307-0.599-3.002-0.03-4.031c0.189-0.343,0.46-0.602,0.795-0.763c0.012-1.333,0.227-5.207,2.229-7.129  c-0.651-0.333-1.394-0.872-1.629-1.665c-0.144-0.486-0.147-1.255,0.657-2.161c0.09-0.102,0.211-0.171,0.345-0.195  c0.12-0.024,0.279-0.11,0.289-0.159c0.002-0.006,0.102-0.639-2.291-2.316c-0.825-0.578-1.522-0.739-2.072-0.482  c-1.398,0.655-1.964,3.828-2.052,4.888c-0.016,0.189-0.118,0.359-0.279,0.46c-0.161,0.1-0.36,0.12-0.536,0.054  c-0.432-0.165-2.607-1.05-2.948-2.322c-0.078-0.291-0.096-0.721,0.219-1.169c0.329-1.016,0.771-2.203,1.199-2.81  c-0.038-0.096-0.099-0.171-0.189-0.237c-0.259-0.187-1.163-0.548-3.932,0.163c-0.257,0.066-0.514,0.002-0.707-0.179  c-0.149-0.139-0.5-0.466-0.277-2.45c-0.227,0.147-0.452,0.295-0.673,0.448v2.43c0,0.046-0.006,0.09-0.016,0.135  C31.737,19.51,30.06,20.584,29.416,20.885z"
     id="path8" /><path
     d="M16.649,61.41L16.649,61.41c0-0.444,0.362-0.803,0.803-0.803h1.707L14.6,58.948l-3.894,1.564l5.942,2.024V61.41H16.649z"
     id="path10" /><path
     d="M95.644,70.903c0.217-0.528,0.215-1.109-0.004-1.635c-0.219-0.524-0.631-0.934-1.159-1.151  c-0.528-0.217-1.109-0.217-1.633,0.002L54.844,83.974v4.82l39.641-16.731C95.015,71.843,95.427,71.429,95.644,70.903z"
     id="path12" /><path
     d="M97.876,68.341c-0.469-1.126-1.348-2-2.474-2.461c-0.18-0.073-0.364-0.135-0.564-0.189c-0.041-0.011-0.08-0.029-0.129-0.061  c-0.026-0.016-0.071-0.04-0.13-0.059l-18.92-6.716l-0.178,0.229c-6.173,7.948-15.461,12.507-25.483,12.507  c-11.294,0-21.918-6.05-27.724-15.79l-0.176-0.295l-6.388,2.566l8.114,2.949l0.042,0.018c0.013,0.006,0.027,0.014,0.048,0.025  l0.025,0.012c0.009,0.007,0.018,0.015,0.027,0.022l0.035,0.029c-0.002-0.002-0.003-0.003-0.003-0.002l0.052,0.062  c0.005,0.008,0.009,0.016,0.013,0.023l0.018,0.028c0.005,0.013,0.009,0.025,0.016,0.048l0.017,0.071  c0.002,0.013,0.004,0.025,0.005,0.037v0.019c-0.001,0.011-0.002,0.021-0.002,0.032c-0.001,0.008-0.001,0.016-0.001,0.021  l-0.012,0.052c-0.004,0.013-0.007,0.025-0.01,0.036c-0.006,0.013-0.012,0.024-0.015,0.031c-0.007,0.015-0.016,0.029-0.024,0.043  l-0.017,0.027c-0.009,0.012-0.019,0.023-0.019,0.023c-0.01,0.01-0.02,0.021-0.03,0.032c-0.01,0.009-0.02,0.017-0.027,0.023  l-0.038,0.023c-0.012,0.008-0.024,0.014-0.048,0.024l-0.018,0.007c-0.012,0.004-0.023,0.008-0.034,0.011  c-0.015,0.003-0.029,0.006-0.044,0.01c-0.021,0.003-0.041,0.006-0.062,0.006h-5.864v1.833l-0.003,0.031  c-0.001,0.018-0.002,0.037-0.005,0.054l-0.008,0.03c-0.004,0.012-0.006,0.024-0.009,0.036l-0.014,0.032  c-0.004,0.009-0.008,0.018-0.017,0.032c-0.007,0.011-0.014,0.022-0.022,0.034c-0.011,0.014-0.02,0.025-0.024,0.029  c-0.009,0.008-0.017,0.017-0.025,0.027c-0.017,0.016-0.037,0.031-0.056,0.043c-0.016,0.009-0.032,0.018-0.048,0.026l-0.037,0.014  c-0.014,0.006-0.029,0.01-0.052,0.016c-0.001,0-0.001,0-0.002,0c-0.053,0.009-0.121,0.007-0.132,0.006l-0.043-0.01  c-0.012-0.003-0.023-0.006-0.033-0.008l-8.917-3.034l-6.164,2.475c-0.237,0.095-0.387,0.322-0.381,0.579  c0.006,0.25,0.166,0.474,0.4,0.558l41.294,14.656l8.876-3.753c0.103-0.044,0.224,0.008,0.266,0.106  c0.043,0.103-0.004,0.221-0.107,0.265l-8.472,3.581l2.813,1.001l8.505-3.601c0.103-0.044,0.225,0.008,0.266,0.104  c0.043,0.103-0.005,0.223-0.107,0.266l-8.1,3.429l2.781,0.988l2.842-1.197c0.103-0.042,0.222,0.008,0.264,0.106  c0.043,0.103-0.005,0.221-0.106,0.264l-2.438,1.024l3.011,1.07l0.022,0.007c0,0,0.043,0.012,0.086,0.018l0.034,0.004  c0.02,0.002,0.028,0.002,0.051,0.002l0.175-0.025L92.387,67.01c0.818-0.341,1.732-0.342,2.554-0.005  c0.826,0.341,1.47,0.981,1.813,1.802s0.346,1.729,0.007,2.556c-0.34,0.824-0.982,1.469-1.807,1.815L54.426,90.283h-0.049  l-0.105,0.075c-0.098,0.07-0.226,0.091-0.344,0.058L53.879,90.4L5.345,73.175c-0.159-0.056-0.266-0.208-0.266-0.377l-0.003-1.801  l-2.92,1.208c-0.107,0.043-0.252,0.135-0.338,0.328c-0.065,0.15-0.067,0.315-0.003,0.473c0.075,0.178,0.23,0.312,0.421,0.36  c0.021,0.005,0.043,0.011,0.062,0.018l51.554,18.298c0.069,0.022,0.132,0.032,0.192,0.032h0.014l0.132-0.008l0.078-0.035  L95.428,74.3c1.122-0.468,1.997-1.346,2.463-2.474C98.349,70.695,98.345,69.458,97.876,68.341z"
     id="path14" /><path
     d="M6.283,67.32v4.312c0,0.014-0.004,0.028-0.004,0.042v0.552l46.959,16.667v-4.906L6.283,67.32z"
     id="path16" /><path
     style="fill:#00ff00;stroke-width:0.42372882"
     d="m 62.715654,63.719754 c -0.541997,-3.71864 -1.355152,-5.414669 -2.596043,-5.414669 -1.368765,0 -6.131086,-1.65906 -7.238255,-2.521606 -0.978013,-0.761926 -1.059322,-1.094226 -1.059322,-4.329306 V 47.950137 L 49.067797,47.45577 c -1.514831,-0.271902 -3.802966,-0.713283 -5.084746,-0.980847 -1.28178,-0.267564 -3.028259,-0.370888 -3.881065,-0.22961 -1.999945,0.331318 -3.924502,-0.642466 -4.862093,-2.460113 -0.388661,-0.75347 -1.53897,-2.103846 -2.556242,-3.000835 -3.725487,-3.28498 -5.146163,-7.465746 -3.765472,-11.081032 0.595764,-1.559987 0.648488,-2.278946 0.289783,-3.951531 -0.543698,-2.535176 -0.269209,-3.741898 1.221595,-5.370446 1.635894,-1.787044 2.103383,-2.850552 2.176304,-4.950957 0.04598,-1.324304 0.113073,-1.498016 0.243257,-0.629792 0.176067,1.174219 0.229305,1.196037 2.584817,1.059322 1.972993,-0.114513 2.374934,-0.02541 2.237415,0.496003 -0.0922,0.349576 -0.375067,1.369853 -0.628598,2.267281 -0.431596,1.527728 -0.385664,1.69646 0.720922,2.648305 1.276846,1.098296 2.764657,1.339289 3.006317,0.486957 0.0826,-0.291314 0.36935,-1.336931 0.637232,-2.323595 0.709576,-2.613507 1.642334,-2.932383 3.865927,-1.32162 1.53383,1.111101 1.703171,1.371746 1.107721,1.704976 -0.888895,0.497451 -0.918945,2.617056 -0.04943,3.486571 0.588815,0.588815 0.588727,0.752295 -8.9e-4,1.65216 -0.359899,0.549277 -0.860069,2.127942 -1.111489,3.508147 -0.251417,1.380204 -0.632374,2.690606 -0.846568,2.912005 -0.214195,0.221398 -0.389444,1.129372 -0.389444,2.017719 v 1.615177 l -1.648226,-0.263562 c -1.384692,-0.221421 -1.794333,-0.103661 -2.562041,0.736518 -0.502599,0.550044 -1.190982,1.302092 -1.529741,1.671219 -1.44953,1.579472 -0.501213,3.126667 2.81573,4.593908 1.054702,0.466546 2.265602,1.232757 2.690888,1.702693 0.425286,0.469936 2.28989,1.439308 4.143564,2.15416 3.959996,1.527136 4.781709,1.400247 8.396239,-1.296554 1.901267,-1.418535 2.574683,-1.681278 4.309148,-1.681278 1.130649,0 2.741277,0.286441 3.579172,0.636536 1.471172,0.614695 1.514152,0.694664 1.25257,2.330509 -0.211574,1.323108 -0.136104,1.693972 0.344716,1.693972 0.338577,0 0.735894,-0.19465 0.882927,-0.432555 0.462452,-0.748263 4.613524,-2.949141 5.570211,-2.9533 0.876339,-0.0038 0.911839,0.16049 0.847457,3.922512 -0.06284,3.672445 -0.156894,4.061872 -1.453661,6.018966 -0.762555,1.150862 -1.646568,2.959156 -1.964471,4.018427 -0.764584,2.54764 -4.247764,8.132306 -5.472338,8.773924 -0.957736,0.501809 -0.976873,0.463831 -1.46954,-2.916356 z"
     id="path3731"
     inkscape:connector-curvature="0" /><path
     style="fill:#0000ff;stroke-width:0.42372882"
     d="m 74.656588,27.117853 c -2.289662,-1.531642 -3.991892,-3.194256 -3.720294,-3.633711 0.48027,-0.777093 -0.401917,-3.002144 -2.409715,-6.077783 -2.288658,-3.505873 -2.562744,-4.301544 -1.237428,-3.592256 3.03301,1.623218 9.213205,8.95895 10.798256,12.817253 l 0.652779,1.588983 h -1.217742 c -0.669759,0 -1.959394,-0.496119 -2.865856,-1.102486 z"
     id="path3733"
     inkscape:connector-curvature="0" /><path
     style="fill:#0000ff;stroke-width:0.42372882"
     d="m 68.983051,63.008381 c 0,-0.220542 0.447585,-0.939983 0.994633,-1.59875 0.547049,-0.658771 1.106222,-1.907432 1.242607,-2.774796 0.136385,-0.867369 0.805304,-2.392793 1.486486,-3.389831 1.788565,-2.617907 2.178203,-4.277076 2.067601,-8.804326 l -0.09834,-4.025424 -2.19969,0.05746 c -1.354295,0.03538 -2.75534,0.385306 -3.645478,0.9105 l -1.445788,0.853036 -0.439964,-0.965616 c -0.534116,-1.172257 -3.684474,-2.338435 -6.317141,-2.338435 -1.771513,0 -4.851279,1.204726 -5.416112,2.118644 -0.14815,0.239712 -1.032125,0.824972 -1.96439,1.300578 -1.475013,0.752495 -1.897532,0.799201 -3.255149,0.359827 -2.289576,-0.74099 -5.486741,-2.411897 -5.879528,-3.072769 -0.187886,-0.316121 -1.253558,-0.918656 -2.368159,-1.338967 -1.114602,-0.420311 -2.12439,-0.922512 -2.243974,-1.116002 -0.3295,-0.533143 1.582233,-2.912722 2.337496,-2.909536 0.364012,0.0015 1.233874,0.381636 1.933026,0.844666 2.059193,1.36375 2.471846,1.148298 2.13267,-1.113495 -0.161735,-1.078524 -0.385029,-2.198006 -0.49621,-2.487738 -0.11118,-0.289732 0.09484,-0.823768 0.457816,-1.186747 0.362979,-0.362979 0.661025,-1.197946 0.662325,-1.855482 0.0039,-1.951501 0.805282,-4.261152 1.951068,-5.622841 1.064136,-1.264653 1.056044,-2.140477 -0.01978,-2.140477 -0.307287,0 -0.77508,-0.260718 -1.03954,-0.579373 -0.365733,-0.440681 -0.327436,-0.706685 0.159981,-1.111205 1.118606,-0.928361 0.739267,-2.359155 -1.055318,-3.980455 -2.7972,-2.527101 -5.531739,-1.860807 -6.645059,1.619127 -0.44288,1.384324 -1.404568,1.978191 -1.404568,0.867356 0,-0.392039 0.300686,-1.346445 0.66819,-2.120903 1.038425,-2.188317 0.302458,-3.169123 -2.378013,-3.169123 -1.842571,0 -2.103736,-0.108505 -2.103736,-0.874032 0,-0.665436 0.65935,-1.172995 2.762721,-2.126709 7.924346,-3.59307 18.256123,-3.4886574 25.652244,0.25924 1.857437,0.941235 2.093714,1.215346 2.095324,2.430843 0.0011,0.825095 0.515493,2.128367 1.293334,3.27676 2.095324,3.093502 3.002795,5.073568 2.725559,5.947063 -0.187164,0.5897 0.285691,1.395789 1.715361,2.924222 2.267407,2.424042 4.876713,3.840579 7.074465,3.840579 1.495191,0 1.536085,0.04495 2.024034,2.224577 0.913649,4.081212 1.007466,9.204548 0.239098,13.057036 -0.905949,4.542291 -3.678428,10.312904 -6.711304,13.968849 -2.23685,2.696381 -4.548802,4.649437 -4.548802,3.842665 z"
     id="path3735"
     inkscape:connector-curvature="0" /><path
     style="fill:#0000ff;stroke-width:0.42372882"
     d="M 43.771186,69.541492 C 37.600674,68.180818 32.036614,65.019585 27.646723,60.380339 18.722256,50.948944 16.649095,37.020409 22.454496,25.496352 c 1.962693,-3.89606 7.95329,-10.992521 8.672439,-10.273372 0.360434,0.360434 -1.46511,4.092821 -2.125849,4.34637 -1.141322,0.437967 -1.676546,2.597423 -1.415506,5.711109 0.182056,2.171563 0.07335,3.368734 -0.411206,4.528432 -1.383932,3.312215 0.355874,8.312868 4.260756,12.246516 1.191611,1.20039 2.630088,2.797626 3.196617,3.549416 1.341153,1.779726 3.198221,2.536589 5.474681,2.231252 1.032969,-0.13855 3.097586,0.05099 4.850302,0.445267 1.678459,0.377577 3.623778,0.737594 4.322931,0.800038 1.085478,0.09695 1.251753,0.268292 1.138165,1.172857 -0.448013,3.567767 -0.278562,5.0294 0.704373,6.075686 1.169099,1.24445 4.222962,2.632967 7.190667,3.269429 l 2.109412,0.452385 0.495849,2.834301 c 0.272716,1.558865 0.586937,3.329793 0.698267,3.935394 0.185818,1.010801 0.01839,1.158331 -2.041734,1.799119 -5.283074,1.643267 -11.013458,1.977203 -15.803474,0.920941 z"
     id="path3737"
     inkscape:connector-curvature="0" /><path
     style="fill:#ff0000;stroke-width:0.10593221"
     d=""
     id="path3749"
     inkscape:connector-curvature="0" /><path
     style="fill:#ff0000;stroke-width:0.10593221"
     d="m 13.685729,61.473207 -2.830974,-0.964189 1.824618,-0.732873 c 1.00354,-0.403079 1.872287,-0.733608 1.93055,-0.734508 0.05826,-9e-4 1.011653,0.32723 2.118644,0.729177 l 2.012712,0.730813 -0.794491,0.05941 c -1.213666,0.09076 -1.268659,0.139992 -1.369648,1.22627 l -0.06044,0.650088 z"
     id="path3751"
     inkscape:connector-curvature="0" /><path
     style="fill:#ffaaaa;stroke-width:0.10593221"
     d="m 76.797381,28.054816 c -1.206403,-0.324953 -2.998983,-1.450394 -4.555383,-2.86002 -0.432338,-0.391567 -0.905321,-0.892141 -1.051072,-1.112386 -0.227491,-0.343762 -0.250567,-0.452731 -0.163016,-0.769812 0.279153,-1.01101 -0.510601,-2.835904 -2.782561,-6.429696 -1.22673,-1.940446 -1.428961,-2.291164 -1.601834,-2.777972 -0.1886,-0.531096 -0.04623,-0.591345 0.602292,-0.25488 2.481432,1.287413 7.563622,6.98889 10.02144,11.242598 0.348918,0.603866 1.407042,2.921917 1.407042,3.082431 0,0.102957 -1.375362,0.01483 -1.876908,-0.120263 z"
     id="path3757"
     inkscape:connector-curvature="0" /><path
     style="fill:#4d4d4d;stroke-width:0.10593221"
     d="M 51.608611,90.835971 C 50.326831,90.378181 38.76698,86.273795 25.920052,81.715115 13.073124,77.156435 2.4140309,73.365861 2.2331787,73.291618 1.8350851,73.128192 1.7213948,72.789594 1.964013,72.489973 2.111277,72.30811 4.718816,71.120792 4.9719585,71.120334 c 0.043697,-7.9e-5 0.079449,0.423045 0.079449,0.940276 0,0.623728 0.044591,0.97703 0.1324153,1.049139 0.072828,0.0598 4.6610169,1.715583 10.1959742,3.679526 5.534958,1.963943 16.497282,5.8537 24.360722,8.643903 l 14.297162,5.073099 11.020635,-4.652029 c 6.061348,-2.558615 15.332678,-6.472127 20.602953,-8.696691 5.270274,-2.224565 9.781493,-4.181698 10.024928,-4.349187 1.271545,-0.874846 1.716391,-2.731471 1.002101,-4.182402 -0.374535,-0.760787 -0.874377,-1.2453 -1.64265,-1.592274 -0.69637,-0.314499 -1.368098,-0.404168 -1.984686,-0.264936 -0.273242,0.0617 -5.111695,2.037487 -10.752119,4.390636 -29.403548,12.266972 -28.119265,11.740497 -28.465709,11.669122 -0.180259,-0.03714 -0.894937,-0.27111 -1.588174,-0.519939 l -1.260431,-0.452418 1.101532,-0.461274 c 1.18152,-0.49477 1.432566,-0.653911 1.31968,-0.836564 -0.119555,-0.193443 -0.324197,-0.139472 -1.754564,0.462738 L 50.28633,81.599892 49.014209,81.153726 C 48.314541,80.908334 47.743397,80.683612 47.745,80.654341 c 0.0016,-0.02927 1.753456,-0.786332 3.893008,-1.68236 2.139552,-0.896028 3.955322,-1.689917 4.035044,-1.764199 0.161212,-0.150211 0.07867,-0.367253 -0.139674,-0.367253 -0.07762,0 -2.041168,0.804107 -4.363451,1.786905 l -4.222333,1.786905 -1.21822,-0.424759 c -0.670021,-0.233618 -1.253652,-0.455837 -1.296957,-0.49382 -0.04331,-0.03798 1.791971,-0.857823 4.07839,-1.821868 3.51118,-1.480452 4.162386,-1.788366 4.190977,-1.981645 0.02132,-0.144141 -0.02256,-0.228837 -0.118554,-0.228837 -0.08382,0 -2.123404,0.834217 -4.532404,1.853814 -2.409,1.019597 -4.435239,1.853814 -4.502755,1.853814 -0.06752,0 -9.197828,-3.222673 -20.289582,-7.161496 C 12.166734,68.070719 2.8867013,64.776237 2.636194,64.688471 2.3856866,64.600705 2.1059397,64.414758 2.0145342,64.275255 1.7008863,63.796568 1.9254466,63.662282 5.2870734,62.318294 L 8.4288573,61.0622 12.961919,62.60576 c 3.261107,1.110445 4.578134,1.515215 4.69369,1.442541 0.121641,-0.0765 0.167988,-0.348987 0.190948,-1.122615 l 0.03032,-1.021598 h 2.916264 c 1.807675,0 2.994154,-0.04169 3.121164,-0.109659 0.230694,-0.123464 0.273995,-0.549743 0.07249,-0.713593 -0.07283,-0.05922 -1.872352,-0.737366 -3.998941,-1.506994 -2.126589,-0.769629 -3.902542,-1.432789 -3.946563,-1.473688 -0.04402,-0.0409 1.291934,-0.622879 2.968791,-1.293287 l 3.04883,-1.218925 0.870562,1.330743 c 1.295028,1.979583 2.524055,3.477454 4.3079,5.250234 2.724863,2.70796 5.734585,4.831907 9.020748,6.365901 8.273617,3.862159 17.570002,4.117338 25.943715,0.712139 2.712675,-1.103117 5.709801,-2.870352 8.051541,-4.747532 1.324266,-1.061555 3.468028,-3.182142 4.55132,-4.502118 0.454249,-0.553496 0.839977,-1.022832 0.857175,-1.042968 0.03122,-0.03655 17.773708,6.245987 19.378947,6.862005 1.514425,0.581168 2.487277,1.566538 2.915524,2.953038 0.625115,2.02389 -0.268464,4.251011 -2.103213,5.241958 -0.607706,0.328222 -41.406462,17.565231 -41.702141,17.618679 -0.116525,0.02106 -1.260593,-0.336259 -2.542373,-0.79405 z"
     id="path3759"
     inkscape:connector-curvature="0" /><path
     style="fill:#808080;stroke-width:0.10593221"
     d="M 29.733611,80.492919 6.3755602,72.202408 6.3470573,69.795377 c -0.022607,-1.909131 -6.946e-4,-2.397028 0.1059322,-2.35867 0.073939,0.0266 10.5978885,3.758535 23.3865535,8.293193 12.788666,4.534658 23.264949,8.253367 23.280631,8.263799 0.01568,0.01043 0.01568,1.092388 0,2.404349 l -0.02851,2.385383 z"
     id="path3761"
     inkscape:connector-curvature="0" /><path
     style="fill:#808080;stroke-width:0.10593221"
     d="m 54.945475,86.340333 v -2.350639 l 19.135288,-7.98245 c 18.978332,-7.916976 19.1403,-7.982088 19.746454,-7.938243 1.085061,0.07849 1.802726,0.794863 1.881049,1.877675 0.04874,0.673782 -0.167322,1.238025 -0.644591,1.683366 -0.197363,0.18416 -25.155995,10.802599 -39.138327,16.651072 l -0.979873,0.409857 z"
     id="path3763"
     inkscape:connector-curvature="0" /><path
     style="fill:#008000;stroke-width:0.10593221"
     d="M 77.530377,28.107816 C 76.624946,28.007556 75.846958,27.69848 74.721588,26.99195 73.53048,26.244151 72.671185,25.554764 71.788998,24.639224 l -0.709599,-0.736429 0.0046,-0.836912 c 0.0075,-1.362461 -0.566344,-2.616103 -2.971273,-6.491024 -1.225002,-1.973774 -1.594031,-2.702157 -1.444688,-2.8515 0.132871,-0.132871 1.212971,0.530001 2.195523,1.347423 2.486353,2.06849 6.105898,6.34359 7.97635,9.420987 0.549476,0.904037 1.749775,3.390551 1.749775,3.624797 0,0.105463 -0.03012,0.105214 -1.059322,-0.0087 z"
     id="path3765"
     inkscape:connector-curvature="0" /><path
     style="fill:#008000;stroke-width:0.10593221"
     d="m 63.23999,66.429182 c -0.06155,-0.189353 -0.257126,-1.246772 -0.43462,-2.349819 -0.401137,-2.492895 -0.653837,-3.501832 -1.122357,-4.481153 -0.387246,-0.80944 -0.913458,-1.299324 -1.395675,-1.299324 -1.132234,0 -5.52833,-1.442681 -6.969271,-2.28713 -0.704229,-0.412705 -1.170271,-0.992699 -1.305926,-1.625236 -0.06996,-0.326225 -0.117357,-1.73992 -0.117357,-3.500592 v -2.953377 l -0.556144,-0.10906 c -0.305879,-0.05998 -1.247352,-0.232624 -2.092161,-0.383646 -0.844809,-0.151021 -2.489407,-0.461666 -3.654661,-0.690323 -2.798561,-0.549157 -3.837033,-0.656528 -5.511925,-0.569894 -1.141525,0.05905 -1.490023,0.03995 -2.012712,-0.110312 -1.224252,-0.35194 -1.974656,-0.997022 -2.963971,-2.547973 -0.441965,-0.692869 -1.10604,-1.459957 -2.430221,-2.807203 -2.345672,-2.38653 -3.148167,-3.563925 -3.826697,-5.614407 -0.27429,-0.82889 -0.298205,-1.030867 -0.301031,-2.542373 l -0.0031,-1.641949 0.447483,-1.355763 c 0.52941,-1.603982 0.560927,-2.164752 0.224674,-3.997567 -0.446949,-2.436189 -0.180895,-3.481263 1.339121,-5.260134 1.443899,-1.68979 1.912068,-2.651103 2.015822,-4.139172 0.03142,-0.450669 0.08393,-0.986241 0.116678,-1.190161 l 0.05955,-0.370762 0.135259,0.52274 c 0.209848,0.811002 0.237546,0.819623 2.510879,0.781599 1.654412,-0.02767 2.007053,-0.0069 2.133366,0.125746 0.131662,0.138249 0.09029,0.379154 -0.318326,1.853813 -0.607456,2.192225 -0.594892,2.329694 0.289088,3.16322 1.115266,1.051609 2.480383,1.519851 3.054143,1.047585 0.161024,-0.13254 0.348443,-0.638306 0.657517,-1.774364 0.237763,-0.873941 0.558388,-1.846945 0.712501,-2.16223 0.47224,-0.966111 1.166362,-1.19195 2.188825,-0.712155 0.63414,0.297573 2.182141,1.43118 2.422019,1.773653 0.164365,0.234664 0.155597,0.258348 -0.234364,0.633058 -0.90138,0.866127 -0.854426,2.468944 0.104577,3.569877 0.389717,0.447394 0.381596,0.655867 -0.05621,1.442701 -0.41692,0.749302 -0.795879,1.901796 -1.117979,3.400011 -0.365812,1.701532 -0.532821,2.284549 -0.880006,3.072034 -0.300087,0.680658 -0.330857,0.859391 -0.37485,2.177443 l -0.04793,1.435917 -1.317442,-0.193625 c -1.829432,-0.268873 -1.948214,-0.230669 -3.140122,1.009941 -1.50533,1.566839 -1.800317,1.998581 -1.847848,2.704512 -0.03528,0.524023 -1.48e-4,0.661395 0.28118,1.09923 0.40512,0.630507 1.344414,1.325613 2.650312,1.961312 1.491175,0.725891 2.316491,1.22552 3.029856,1.834213 1.163787,0.993025 4.782534,2.616318 6.907882,3.098729 0.855435,0.194166 1.071303,0.207474 1.678447,0.103474 1.004047,-0.171986 2.001982,-0.693361 3.80688,-1.988924 1.968511,-1.413004 2.618062,-1.733193 3.746893,-1.846992 1.573554,-0.15863 3.627684,0.170952 4.942689,0.793049 0.306789,0.145134 0.617867,0.336259 0.691285,0.424721 0.159823,0.192576 0.159953,0.752809 4.23e-4,1.911358 -0.149652,1.087109 -0.05113,1.418439 0.421781,1.418439 0.393648,0 0.720699,-0.162337 0.972842,-0.482885 0.385841,-0.490517 3.166903,-2.089386 4.505244,-2.590124 0.31001,-0.115989 0.774702,-0.21089 1.032649,-0.21089 0.735142,0 0.7439,0.03904 0.724787,3.230932 -0.02463,4.114042 -0.12403,4.567928 -1.461471,6.673729 -0.756188,1.190619 -1.532458,2.782109 -1.963451,4.025424 -0.958538,2.765154 -3.986171,7.671415 -5.292756,8.576879 -0.555271,0.384803 -0.912738,0.359091 -1.054099,-0.07582 z"
     id="path3767"
     inkscape:connector-curvature="0" /></svg>